<?xml version="1.0" standalone="no"?>
<!DOCTYPE svg PUBLIC "-//W3C//DTD SVG 20010904//EN"
 "http://www.w3.org/TR/2001/REC-SVG-20010904/DTD/svg10.dtd">
<svg version="1.0" xmlns="http://www.w3.org/2000/svg"
 width="16.000000pt" height="16.000000pt" viewBox="0 0 16.000000 16.000000"
 preserveAspectRatio="xMidYMid meet">
<metadata>
Created by potrace 1.11, written by Peter Selinger 2001-2013
</metadata>
<g transform="translate(0.000000,16.000000) scale(0.010526,-0.010526)"
fill="#000000" stroke="none">
<path d="M460 1277 l-285 -192 -3 -297 c-2 -256 0 -298 12 -298 10 0 16 -13
18 -41 l3 -41 250 -145 c138 -79 262 -153 278 -164 27 -20 27 -20 55 0 15 11
140 85 277 164 l250 145 3 41 c2 28 8 41 18 41 12 0 14 42 12 298 l-3 297
-285 192 c-157 106 -292 192 -300 192 -8 0 -143 -86 -300 -192z m520 -192 l0
-45 -196 -2 -197 -3 -20 -28 c-15 -19 -21 -43 -21 -80 -1 -62 16 -100 50 -116
20 -9 24 -18 24 -51 0 -32 -4 -40 -19 -40 -32 0 -85 44 -108 90 -40 78 -28
215 25 274 35 39 69 45 270 46 l192 0 0 -45z m-70 -311 c74 -63 97 -192 50
-289 -39 -80 -54 -85 -282 -85 l-198 0 0 40 0 40 181 0 c110 0 188 4 201 11
24 13 48 67 48 109 0 46 -26 98 -54 112 -21 9 -26 18 -26 50 0 34 3 38 24 38
14 0 39 -12 56 -26z"/>
</g>
</svg>
